PERFORMER "Chris Remo"
TITLE "Firewatch"
REM SRC "https://www.youtube.com/watch?v=3UfbD9DnANU"
REM COMMENT "Generated by cuetube *.*.* - Wed Jan 07 2026 08:57:03 GMT+0100 (heure normale d’Europe centrale)"
FILE "https://www.youtube.com/watch?v=3UfbD9DnANU" MP3
  TRACK 01 MP3
    TITLE Prologue
    INDEX 01 00:00:00
  TRACK 02 MP3
    TITLE "Stay in Your Tower and Watch"
    INDEX 01 03:34:00
  TRACK 03 MP3
    TITLE Something's
    INDEX 01 05:30:00
  TRACK 04 MP3
    INDEX 01 06:25:00
